<svg width="64" height="64" viewBox="0 0 64 64" xmlns="http://www.w3.org/2000/svg">
  <rect width="64" height="64" rx="12" fill="#1a1008"/>
  <path d="M34 8 C34 8 48 17 44 31 C40 44 24 46 20 56 C17 46 19 34 28 27 C19 29 13 39 15 50 C9 41 11 25 22 17 C28 12 34 8 34 8Z" fill="#4a2f1a"/>
  <path d="M32 10 C32 10 44 19 40 31 C36 43 22 45 19 54 C17 45 19 34 27 27 C19 29 14 38 16 49 C11 40 13 25 23 18 C28 13 32 10 32 10Z" fill="#c8813a" opacity="0.85"/>
  <rect x="36" y="36" width="2" height="12" rx="1" fill="#e8c99a"/>
  <rect x="46" y="33" width="2" height="12" rx="1" fill="#e8c99a"/>
  <rect x="36" y="36" width="12" height="2.5" rx="1" fill="#e8c99a"/>
  <ellipse cx="35" cy="48" rx="4" ry="2.5" fill="#e8c99a" transform="rotate(-15 35 48)"/>
  <ellipse cx="45" cy="45" rx="4" ry="2.5" fill="#e8c99a" transform="rotate(-15 45 45)"/>
</svg>
